<?xml version="1.0" encoding="utf-8"?>
<!-- Generator: Adobe Illustrator 19.2.1, SVG Export Plug-In . SVG Version: 6.00 Build 0)  -->
<svg version="1.1" id="Layer_1" xmlns="http://www.w3.org/2000/svg" xmlns:xlink="http://www.w3.org/1999/xlink" x="0px" y="0px"
	 viewBox="0 0 133.5 92.5" style="enable-background:new 0 0 133.5 92.5;" xml:space="preserve">
<style type="text/css">
	.st0{fill:#091016;}
	.st1{fill:#87795A;}
	.st2{fill:none;stroke:#000000;stroke-miterlimit:10;}
</style>
<g>
	<g>
		<path class="st0" d="M22.4,84.1c-1-3.1-4-5.2-7.2-5.2c-0.2,0-0.5,0-0.7,0l-11-51.2c1.6-0.5,3-1.6,4-3.1c0.9-1.5,1.4-3.2,1.2-4.9
			l32-6.8c1,3.1,4,5.2,7.2,5.2c0.2,0,0.5,0,0.7,0l11,51.2c-1.6,0.5-3,1.6-4,3.1c-0.9,1.5-1.4,3.2-1.2,4.9L22.4,84.1z"/>
		<path class="st1" d="M40.1,13.9c1.4,3,4.4,5.1,7.8,5.1c0,0,0,0,0,0l10.6,49.7c-1.5,0.7-2.8,1.7-3.7,3.2c-0.9,1.4-1.4,3-1.4,4.7
			L23,83c-1.4-3-4.4-5.1-7.8-5.1c0,0,0,0,0,0L4.5,28.3c1.5-0.7,2.8-1.7,3.7-3.2c0.9-1.4,1.4-3,1.4-4.7L40.1,13.9 M41.3,11.9
			L7.7,19.1c0.8,3.7-1.5,7.2-5.2,8l11.3,52.8c0.5-0.1,1-0.2,1.4-0.2c3.1,0,5.9,2.2,6.6,5.4l33.6-7.2c-0.8-3.7,1.5-7.2,5.2-8
			L49.3,17.1c-0.5,0.1-1,0.2-1.4,0.2C44.8,17.2,42,15,41.3,11.9L41.3,11.9z"/>
	</g>
	<g>
		<path class="st0" d="M25.5,75.2c-0.7-2.1-2.7-3.6-4.9-3.6c-0.2,0-0.4,0-0.6,0l-8.6-40.4c2.4-0.7,3.9-3.1,3.6-5.6l22.5-4.8
			c0.7,2.1,2.7,3.6,4.9,3.6c0.2,0,0.4,0,0.6,0l8.6,40.4c-2.4,0.7-3.9,3.1-3.6,5.6L25.5,75.2z"/>
		<path class="st1" d="M37.1,21.3c0.8,2.1,2.9,3.6,5.2,3.6c0.1,0,0.2,0,0.3,0l8.5,39.6c-1.1,0.4-2,1.2-2.7,2.2c-0.6,1-1,2.2-0.9,3.3
			l-21.7,4.7c-0.8-2.1-2.9-3.6-5.2-3.6c-0.1,0-0.2,0-0.3,0l-8.5-39.6c1.1-0.4,2-1.2,2.7-2.2c0.6-1,1-2.2,0.9-3.3L37.1,21.3
			 M37.7,20.3l-23.3,5c0.5,2.5-1.1,5-3.6,5.6l8.8,41.2c0.3-0.1,0.7-0.1,1-0.1c2.2,0,4.1,1.5,4.6,3.7l23.3-5c-0.5-2.5,1.1-5,3.6-5.6
			l-8.8-41.2c-0.3,0.1-0.7,0.1-1,0.1C40.1,24,38.2,22.5,37.7,20.3L37.7,20.3z"/>
	</g>
</g>
<g>
	<g>
		<path class="st0" d="M78.9,77.2c0.2-1.7-0.2-3.4-1.2-4.9c-0.9-1.5-2.3-2.5-4-3.1l11-51.2c0.2,0,0.5,0,0.7,0c3.3,0,6.2-2.1,7.2-5.2
			l32,6.8c-0.3,3.5,1.8,6.8,5.2,8l-11,51.2c-0.2,0-0.5,0-0.7,0c-3.3,0-6.2,2.1-7.2,5.2L78.9,77.2z"/>
		<path class="st1" d="M93.2,13.9l30.5,6.5c0,1.6,0.5,3.2,1.4,4.7c0.9,1.4,2.2,2.5,3.7,3.2L118.2,78c0,0,0,0,0,0
			c-3.4,0-6.4,2-7.8,5.1l-30.5-6.5c0-1.6-0.5-3.2-1.4-4.7c-0.9-1.4-2.2-2.5-3.7-3.2L85.4,19c0,0,0,0,0,0
			C88.8,19,91.9,16.9,93.2,13.9 M92.1,11.9c-0.7,3.2-3.5,5.4-6.6,5.4c-0.5,0-0.9,0-1.4-0.2L72.7,69.9c3.7,0.8,6,4.4,5.2,8l33.6,7.2
			c0.7-3.2,3.5-5.4,6.6-5.4c0.5,0,0.9,0,1.4,0.2l11.3-52.8c-3.7-0.8-6-4.4-5.2-8L92.1,11.9L92.1,11.9z"/>
	</g>
	<g>
		<path class="st0" d="M85.4,70.3c0.2-1.2-0.1-2.4-0.8-3.4s-1.7-1.8-2.8-2.1l8.6-40.4c0.2,0,0.4,0,0.6,0c2.3,0,4.3-1.5,4.9-3.6
			l22.5,4.8c-0.2,1.2,0.1,2.4,0.8,3.4s1.7,1.8,2.8,2.1l-8.6,40.4c-0.2,0-0.4,0-0.6,0c-2.3,0-4.3,1.5-4.9,3.6L85.4,70.3z"/>
		<path class="st1" d="M96.3,21.3l21.7,4.7c-0.1,2.4,1.3,4.6,3.6,5.5l-8.5,39.6c-0.1,0-0.2,0-0.3,0c-2.3,0-4.4,1.5-5.2,3.6L85.8,70
			c0.1-2.4-1.3-4.6-3.6-5.5l8.5-39.6c0.1,0,0.2,0,0.3,0C93.4,24.9,95.4,23.4,96.3,21.3 M95.6,20.3c-0.5,2.2-2.4,3.7-4.6,3.7
			c-0.3,0-0.7,0-1-0.1l-8.8,41.2c2.5,0.5,4.2,3,3.6,5.6l23.3,5c0.5-2.2,2.4-3.7,4.6-3.7c0.3,0,0.7,0,1,0.1l8.8-41.2
			c-2.5-0.5-4.2-3-3.6-5.6L95.6,20.3L95.6,20.3z"/>
	</g>
</g>
<path class="st2" d="M66.8,235"/>
<g>
	<g>
		<path class="st0" d="M48.2,82.5c-0.5-4-3.6-7.1-7.6-7.6V15.6c4-0.5,7.1-3.6,7.6-7.6h37.1c0.5,4,3.6,7.1,7.6,7.6v59.3
			c-4,0.5-7.1,3.6-7.6,7.6H48.2z"/>
		<path class="st1" d="M84.4,9c0.8,3.7,3.7,6.7,7.5,7.5V74c-3.7,0.8-6.7,3.7-7.5,7.5H49.1c-0.8-3.7-3.7-6.7-7.5-7.5V16.5
			c3.7-0.8,6.7-3.7,7.5-7.5H84.4 M86.2,7h-39c0,4.2-3.4,7.7-7.7,7.7v61.2c4.2,0,7.7,3.4,7.7,7.7h39c0-4.2,3.4-7.7,7.7-7.7V14.7
			C89.7,14.7,86.2,11.2,86.2,7L86.2,7z"/>
	</g>
	<g>
		<path class="st0" d="M53.7,73.4c-0.2-2.8-2.5-5.1-5.3-5.3V21.3c2.8-0.2,5.1-2.5,5.3-5.3h26.1c0.2,2.8,2.5,5.1,5.3,5.3v46.8
			c-2.8,0.2-5.1,2.5-5.3,5.3H53.7z"/>
		<path class="st1" d="M79.3,16.5c0.4,2.7,2.6,4.8,5.2,5.2v45.9c-2.7,0.4-4.8,2.6-5.2,5.2H54.2c-0.4-2.7-2.6-4.8-5.2-5.2V21.7
			c2.7-0.4,4.8-2.6,5.2-5.2H79.3 M80.3,15.5h-27c0,2.9-2.4,5.3-5.3,5.3v47.8c2.9,0,5.3,2.4,5.3,5.3h27c0-2.9,2.4-5.3,5.3-5.3V20.8
			C82.6,20.8,80.3,18.4,80.3,15.5L80.3,15.5z"/>
	</g>
</g>
</svg>
